<svg width="131" height="78" viewBox="0 0 131 78" fill="none" xmlns="http://www.w3.org/2000/svg">
<g id="CINE HOUSE">
<path d="M17.5049 19.0205L22.793 20.8809C22.3438 23.0586 21.3135 24.8408 19.7021 26.2275C18.0713 27.624 15.8252 28.3223 12.9639 28.3223C9.05762 28.3223 6.16699 27.3018 4.29199 25.2607C2.40723 23.2295 1.46484 20.749 1.46484 17.8193C1.46484 14.8701 2.3877 12.3652 4.2334 10.3047C6.0791 8.24414 8.47656 7.21387 11.4258 7.21387C13.8184 7.21387 15.7666 7.80469 17.2705 8.98633V7.62402H22.1631V15.0654H17.0801C16.8164 14.1377 16.3721 13.4053 15.7471 12.8682C15.1221 12.3408 14.4092 12.0771 13.6084 12.0771C11.4014 12.0771 10.2979 13.9766 10.2979 17.7754C10.2979 21.584 11.4404 23.4883 13.7256 23.4883C15.7275 23.4883 16.9873 21.999 17.5049 19.0205ZM36.7236 28H25.1074V23.1221H26.9824V12.502H25.1074V7.62402H36.7236V12.502H34.8633V23.1221H36.7236V28ZM47.1387 28H38.7744V23.1221H40.5615V12.502H38.7744V7.62402H48.4277L55.8398 18.2734V12.502H54.1846V7.62402H62.4023V12.502H60.6299V28.2637H53.9209L45.3369 15.9443V23.1221H47.1387V28ZM84.2285 28H64.79V23.1221H66.3721V12.502H64.7607V7.62402H84.2285V14.1426H78.8818V12.502H74.2529V15.6367H78.2812V19.7822H74.2529V23.1221H78.8818V21.4814H84.2285V28ZM12.0703 63H1.34766V58.1221H2.88574V47.502H1.31836V42.624H12.0703V47.502H10.7666V50.6074H15.4834V47.502H14.165V42.624H24.9023V47.502H23.3643V58.1221H24.9023V63H14.165V58.1221H15.4834V54.7822H10.7666V58.1221H12.0703V63ZM36.5918 52.7607C36.5918 55.0264 36.8115 56.5547 37.251 57.3457C37.6709 58.1465 38.3301 58.5469 39.2285 58.5469C40.1172 58.5469 40.7812 58.1611 41.2207 57.3896C41.6602 56.6084 41.8799 55.0654 41.8799 52.7607C41.8799 50.5244 41.665 49.001 41.2354 48.1904C40.8154 47.3896 40.1465 46.9893 39.2285 46.9893C38.3496 46.9893 37.6904 47.375 37.251 48.1465C36.8115 48.918 36.5918 50.4561 36.5918 52.7607ZM27.7441 52.7607C27.7441 51.0615 28.1592 49.416 28.9893 47.8242C29.8096 46.2422 31.084 44.9092 32.8125 43.8252C33.4277 43.4443 34.0576 43.1416 34.7021 42.917C35.3564 42.6924 36.0645 42.5215 36.8262 42.4043C37.5879 42.2773 38.3887 42.2139 39.2285 42.2139C42.8809 42.2139 45.708 43.2832 47.71 45.4219C48.7061 46.4766 49.458 47.6191 49.9658 48.8496C50.4736 50.0801 50.7275 51.3838 50.7275 52.7607C50.7275 55.6025 49.6924 58.0732 47.6221 60.1729C45.5518 62.2725 42.7539 63.3223 39.2285 63.3223C35.8203 63.3223 33.0566 62.3359 30.9375 60.3633C28.8086 58.4004 27.7441 55.8662 27.7441 52.7607ZM54.6533 47.502H53.0859V42.624H63.5156V47.502H62.5488V54.3721C62.5488 56.0127 62.7051 57.1309 63.0176 57.7266C63.3301 58.3125 63.8916 58.6055 64.7021 58.6055C65.376 58.6055 65.8643 58.3564 66.167 57.8584C66.4697 57.3701 66.6211 56.3691 66.6211 54.8555V47.502H65.5957V42.624H73.2568V47.502H71.6455V54.8848C71.6455 56.7695 71.3721 58.3125 70.8252 59.5137C70.2783 60.7051 69.3701 61.6377 68.1006 62.3115C66.8311 62.9854 65.2686 63.3223 63.4131 63.3223C61.9189 63.3223 60.5957 63.1416 59.4434 62.7803C58.2715 62.4287 57.3438 61.8916 56.6602 61.1689C55.9766 60.4561 55.4736 59.5918 55.1514 58.5762C54.8193 57.5898 54.6533 56.0762 54.6533 54.0352V47.502ZM80.0391 63H75.4541V56.4668H80.0391C80.5859 58.2441 81.6162 59.1328 83.1299 59.1328C84.2236 59.1328 84.7705 58.6934 84.7705 57.8145C84.7705 57.3555 84.5801 56.9746 84.1992 56.6719C83.7891 56.3398 82.9248 55.8809 81.6064 55.2949C79.9463 54.543 78.7256 53.8936 77.9443 53.3467C77.2119 52.8486 76.5869 52.1602 76.0693 51.2812C75.5518 50.4121 75.293 49.4502 75.293 48.3955C75.293 46.501 75.9082 45.0215 77.1387 43.957C78.3594 42.8926 79.8633 42.3604 81.6504 42.3604C83.4375 42.3604 84.9512 42.8682 86.1914 43.8838V42.624H90.8057V48.4248H86.25C85.6934 46.8232 84.707 46.0225 83.291 46.0225C82.2949 46.0225 81.7969 46.4473 81.7969 47.2969C81.7969 47.707 81.9385 48.0146 82.2217 48.2197C82.4951 48.4346 83.3789 48.9082 84.873 49.6406C86.875 50.6367 88.2129 51.3643 88.8867 51.8232C89.2285 52.0479 89.5752 52.3652 89.9268 52.7754C90.2881 53.1758 90.5859 53.5908 90.8203 54.0205C91.3574 54.9775 91.626 56.0127 91.626 57.126C91.626 58.835 90.9912 60.2803 89.7217 61.4619C88.4521 62.6631 86.8506 63.2637 84.917 63.2637C83.1201 63.2637 81.4941 62.7314 80.0391 61.667V63ZM113.643 63H94.2041V58.1221H95.7861V47.502H94.1748V42.624H113.643V49.1426H108.296V47.502H103.667V50.6367H107.695V54.7822H103.667V58.1221H108.296V56.4814H113.643V63Z" fill="black"/>
<path d="M0 31.5156H85.9277V33.8594H0V31.5156ZM0 66.5156H115.342V68.8594H0V66.5156Z" fill="black"/>
</g>
</svg>
