<svg width="113" height="57" viewBox="0 0 113 57" fill="none" xmlns="http://www.w3.org/2000/svg">
<path d="M16.5049 12.0205L21.793 13.8809C21.3438 16.0586 20.3135 17.8408 18.7021 19.2275C17.0713 20.624 14.8252 21.3223 11.9639 21.3223C8.05762 21.3223 5.16699 20.3018 3.29199 18.2607C1.40723 16.2295 0.464844 13.749 0.464844 10.8193C0.464844 7.87012 1.3877 5.36523 3.2334 3.30469C5.0791 1.24414 7.47656 0.213867 10.4258 0.213867C12.8184 0.213867 14.7666 0.804687 16.2705 1.98633V0.624023H21.1631V8.06543H16.0801C15.8164 7.1377 15.3721 6.40527 14.7471 5.86816C14.1221 5.34082 13.4092 5.07715 12.6084 5.07715C10.4014 5.07715 9.29785 6.97656 9.29785 10.7754C9.29785 14.584 10.4404 16.4883 12.7256 16.4883C14.7275 16.4883 15.9873 14.999 16.5049 12.0205ZM35.7236 21H24.1074V16.1221H25.9824V5.50195H24.1074V0.624023H35.7236V5.50195H33.8633V16.1221H35.7236V21ZM46.1387 21H37.7744V16.1221H39.5615V5.50195H37.7744V0.624023H47.4277L54.8398 11.2734V5.50195H53.1846V0.624023H61.4023V5.50195H59.6299V21.2637H52.9209L44.3369 8.94434V16.1221H46.1387V21ZM83.2285 21H63.79V16.1221H65.3721V5.50195H63.7607V0.624023H83.2285V7.14258H77.8818V5.50195H73.2529V8.63672H77.2812V12.7822H73.2529V16.1221H77.8818V14.4814H83.2285V21ZM11.0703 56H0.347656V51.1221H1.88574V40.502H0.318359V35.624H11.0703V40.502H9.7666V43.6074H14.4834V40.502H13.165V35.624H23.9023V40.502H22.3643V51.1221H23.9023V56H13.165V51.1221H14.4834V47.7822H9.7666V51.1221H11.0703V56ZM35.5918 45.7607C35.5918 48.0264 35.8115 49.5547 36.251 50.3457C36.6709 51.1465 37.3301 51.5469 38.2285 51.5469C39.1172 51.5469 39.7812 51.1611 40.2207 50.3896C40.6602 49.6084 40.8799 48.0654 40.8799 45.7607C40.8799 43.5244 40.665 42.001 40.2354 41.1904C39.8154 40.3896 39.1465 39.9893 38.2285 39.9893C37.3496 39.9893 36.6904 40.375 36.251 41.1465C35.8115 41.918 35.5918 43.4561 35.5918 45.7607ZM26.7441 45.7607C26.7441 44.0615 27.1592 42.416 27.9893 40.8242C28.8096 39.2422 30.084 37.9092 31.8125 36.8252C32.4277 36.4443 33.0576 36.1416 33.7021 35.917C34.3564 35.6924 35.0645 35.5215 35.8262 35.4043C36.5879 35.2773 37.3887 35.2139 38.2285 35.2139C41.8809 35.2139 44.708 36.2832 46.71 38.4219C47.7061 39.4766 48.458 40.6191 48.9658 41.8496C49.4736 43.0801 49.7275 44.3838 49.7275 45.7607C49.7275 48.6025 48.6924 51.0732 46.6221 53.1729C44.5518 55.2725 41.7539 56.3223 38.2285 56.3223C34.8203 56.3223 32.0566 55.3359 29.9375 53.3633C27.8086 51.4004 26.7441 48.8662 26.7441 45.7607ZM53.6533 40.502H52.0859V35.624H62.5156V40.502H61.5488V47.3721C61.5488 49.0127 61.7051 50.1309 62.0176 50.7266C62.3301 51.3125 62.8916 51.6055 63.7021 51.6055C64.376 51.6055 64.8643 51.3564 65.167 50.8584C65.4697 50.3701 65.6211 49.3691 65.6211 47.8555V40.502H64.5957V35.624H72.2568V40.502H70.6455V47.8848C70.6455 49.7695 70.3721 51.3125 69.8252 52.5137C69.2783 53.7051 68.3701 54.6377 67.1006 55.3115C65.8311 55.9854 64.2686 56.3223 62.4131 56.3223C60.9189 56.3223 59.5957 56.1416 58.4434 55.7803C57.2715 55.4287 56.3438 54.8916 55.6602 54.1689C54.9766 53.4561 54.4736 52.5918 54.1514 51.5762C53.8193 50.5898 53.6533 49.0762 53.6533 47.0352V40.502ZM79.0391 56H74.4541V49.4668H79.0391C79.5859 51.2441 80.6162 52.1328 82.1299 52.1328C83.2236 52.1328 83.7705 51.6934 83.7705 50.8145C83.7705 50.3555 83.5801 49.9746 83.1992 49.6719C82.7891 49.3398 81.9248 48.8809 80.6064 48.2949C78.9463 47.543 77.7256 46.8936 76.9443 46.3467C76.2119 45.8486 75.5869 45.1602 75.0693 44.2812C74.5518 43.4121 74.293 42.4502 74.293 41.3955C74.293 39.501 74.9082 38.0215 76.1387 36.957C77.3594 35.8926 78.8633 35.3604 80.6504 35.3604C82.4375 35.3604 83.9512 35.8682 85.1914 36.8838V35.624H89.8057V41.4248H85.25C84.6934 39.8232 83.707 39.0225 82.291 39.0225C81.2949 39.0225 80.7969 39.4473 80.7969 40.2969C80.7969 40.707 80.9385 41.0146 81.2217 41.2197C81.4951 41.4346 82.3789 41.9082 83.873 42.6406C85.875 43.6367 87.2129 44.3643 87.8867 44.8232C88.2285 45.0479 88.5752 45.3652 88.9268 45.7754C89.2881 46.1758 89.5859 46.5908 89.8203 47.0205C90.3574 47.9775 90.626 49.0127 90.626 50.126C90.626 51.835 89.9912 53.2803 88.7217 54.4619C87.4521 55.6631 85.8506 56.2637 83.917 56.2637C82.1201 56.2637 80.4941 55.7314 79.0391 54.667V56ZM112.643 56H93.2041V51.1221H94.7861V40.502H93.1748V35.624H112.643V42.1426H107.296V40.502H102.667V43.6367H106.695V47.7822H102.667V51.1221H107.296V49.4814H112.643V56Z" fill="black"/>
<path d="M-1 24.5156H84.9277V26.8594H-1V24.5156ZM-1 59.5156H114.342V61.8594H-1V59.5156Z" fill="black"/>
</svg>
