<svg width="38" height="36" viewBox="0 0 38 36" fill="none" xmlns="http://www.w3.org/2000/svg">
<path d="M26.7727 24.4457H25.4082L24.9246 23.9743C26.6173 21.9837 27.6364 19.3994 27.6364 16.5882C27.6364 10.3196 22.61 5.23837 16.4091 5.23837C10.2082 5.23837 5.18182 10.3196 5.18182 16.5882C5.18182 22.8568 10.2082 27.938 16.4091 27.938C19.19 27.938 21.7464 26.9078 23.7155 25.1966L24.1818 25.6855V27.0649L32.8182 35.7781L35.3918 33.1764L26.7727 24.4457ZM16.4091 24.4457C12.1082 24.4457 8.63637 20.936 8.63637 16.5882C8.63637 12.2403 12.1082 8.73062 16.4091 8.73062C20.71 8.73062 24.1818 12.2403 24.1818 16.5882C24.1818 20.936 20.71 24.4457 16.4091 24.4457Z" fill="black"/>
</svg>
